<mxfile host="app.diagrams.net" modified="2024-05-11T06:22:20.743Z" agent="Mozilla/5.0 (Windows NT 10.0; Win64; x64) AppleWebKit/537.36 (KHTML, like Gecko) Chrome/124.0.0.0 Safari/537.36" etag="JDiCS5OT9TIuH7hh5W2w" version="24.4.0" type="device">
  <diagram name="Page-1" id="tmgX2utaI_uragU6un_t">
    <mxGraphModel dx="2924" dy="1114" grid="1" gridSize="10" guides="1" tooltips="1" connect="1" arrows="1" fold="1" page="1" pageScale="1" pageWidth="850" pageHeight="1100" math="0" shadow="0">
      <root>
        <mxCell id="0" />
        <mxCell id="1" parent="0" />
        <mxCell id="TzNKyjDSBVO5Mrejy5vB-2" value="Users" style="swimlane;fontStyle=1;childLayout=stackLayout;horizontal=1;startSize=26;horizontalStack=0;resizeParent=1;resizeParentMax=0;resizeLast=0;collapsible=1;marginBottom=0;align=center;fontSize=14;" parent="1" vertex="1">
          <mxGeometry x="-230" y="100" width="260" height="300" as="geometry" />
        </mxCell>
        <mxCell id="TzNKyjDSBVO5Mrejy5vB-3" value="&lt;b&gt;user_id&lt;span style=&quot;white-space: pre;&quot;&gt;&#x9;&lt;/span&gt;&lt;/b&gt;PK&lt;span style=&quot;white-space: pre;&quot;&gt;&#x9;&lt;/span&gt;AI&lt;span style=&quot;white-space: pre;&quot;&gt;&#x9;&lt;/span&gt;!null&lt;span style=&quot;white-space: pre;&quot;&gt;&#x9;&lt;/span&gt;number Unique" style="text;strokeColor=none;fillColor=none;spacingLeft=4;spacingRight=4;overflow=hidden;rotatable=0;points=[[0,0.5],[1,0.5]];portConstraint=eastwest;fontSize=12;whiteSpace=wrap;html=1;" parent="TzNKyjDSBVO5Mrejy5vB-2" vertex="1">
          <mxGeometry y="26" width="260" height="30" as="geometry" />
        </mxCell>
        <mxCell id="TzNKyjDSBVO5Mrejy5vB-4" value="&lt;b&gt;username&lt;span style=&quot;white-space: pre;&quot;&gt;&#x9;&lt;/span&gt;&lt;/b&gt;string !null" style="text;strokeColor=none;fillColor=none;spacingLeft=4;spacingRight=4;overflow=hidden;rotatable=0;points=[[0,0.5],[1,0.5]];portConstraint=eastwest;fontSize=12;whiteSpace=wrap;html=1;" parent="TzNKyjDSBVO5Mrejy5vB-2" vertex="1">
          <mxGeometry y="56" width="260" height="30" as="geometry" />
        </mxCell>
        <mxCell id="TzNKyjDSBVO5Mrejy5vB-19" value="&lt;b&gt;email&lt;/b&gt;&lt;span style=&quot;white-space: pre;&quot;&gt;&lt;b&gt;&#x9;&lt;/b&gt;string&lt;span style=&quot;white-space: pre;&quot;&gt;&#x9;&lt;/span&gt;!null&lt;/span&gt;" style="text;strokeColor=none;fillColor=none;spacingLeft=4;spacingRight=4;overflow=hidden;rotatable=0;points=[[0,0.5],[1,0.5]];portConstraint=eastwest;fontSize=12;whiteSpace=wrap;html=1;" parent="TzNKyjDSBVO5Mrejy5vB-2" vertex="1">
          <mxGeometry y="86" width="260" height="30" as="geometry" />
        </mxCell>
        <mxCell id="TzNKyjDSBVO5Mrejy5vB-5" value="&lt;b&gt;pass&lt;span style=&quot;white-space: pre;&quot;&gt;&#x9;&lt;/span&gt;&lt;/b&gt;string&lt;span style=&quot;white-space: pre;&quot;&gt;&#x9;&lt;/span&gt;!null&lt;span style=&quot;white-space: pre;&quot;&gt;&#x9;&lt;/span&gt;(hashed!)" style="text;strokeColor=none;fillColor=none;spacingLeft=4;spacingRight=4;overflow=hidden;rotatable=0;points=[[0,0.5],[1,0.5]];portConstraint=eastwest;fontSize=12;whiteSpace=wrap;html=1;" parent="TzNKyjDSBVO5Mrejy5vB-2" vertex="1">
          <mxGeometry y="116" width="260" height="34" as="geometry" />
        </mxCell>
        <mxCell id="TzNKyjDSBVO5Mrejy5vB-20" value="&lt;b&gt;user_icon&lt;span style=&quot;white-space: pre;&quot;&gt;&#x9;&lt;/span&gt;&lt;/b&gt;string&lt;span style=&quot;white-space: pre;&quot;&gt;&#x9;&lt;/span&gt;null" style="text;strokeColor=none;fillColor=none;spacingLeft=4;spacingRight=4;overflow=hidden;rotatable=0;points=[[0,0.5],[1,0.5]];portConstraint=eastwest;fontSize=12;whiteSpace=wrap;html=1;" parent="TzNKyjDSBVO5Mrejy5vB-2" vertex="1">
          <mxGeometry y="150" width="260" height="30" as="geometry" />
        </mxCell>
        <mxCell id="1ENWWORPzaJkovNIDj_e-1" value="access_level&lt;span style=&quot;white-space: pre;&quot;&gt;&#x9;&lt;/span&gt;int&lt;span style=&quot;white-space: pre;&quot;&gt;&#x9;&lt;/span&gt;!null" style="text;strokeColor=none;fillColor=none;spacingLeft=4;spacingRight=4;overflow=hidden;rotatable=0;points=[[0,0.5],[1,0.5]];portConstraint=eastwest;fontSize=12;whiteSpace=wrap;html=1;" vertex="1" parent="TzNKyjDSBVO5Mrejy5vB-2">
          <mxGeometry y="180" width="260" height="30" as="geometry" />
        </mxCell>
        <mxCell id="1ENWWORPzaJkovNIDj_e-2" value="status&lt;span style=&quot;white-space: pre;&quot;&gt;&#x9;&lt;/span&gt;string&lt;span style=&quot;white-space: pre;&quot;&gt;&#x9;&lt;/span&gt;!null" style="text;strokeColor=none;fillColor=none;spacingLeft=4;spacingRight=4;overflow=hidden;rotatable=0;points=[[0,0.5],[1,0.5]];portConstraint=eastwest;fontSize=12;whiteSpace=wrap;html=1;" vertex="1" parent="TzNKyjDSBVO5Mrejy5vB-2">
          <mxGeometry y="210" width="260" height="30" as="geometry" />
        </mxCell>
        <mxCell id="1ENWWORPzaJkovNIDj_e-3" value="createdAt&amp;nbsp; &amp;nbsp;date&amp;nbsp; &amp;nbsp; !null" style="text;strokeColor=none;fillColor=none;spacingLeft=4;spacingRight=4;overflow=hidden;rotatable=0;points=[[0,0.5],[1,0.5]];portConstraint=eastwest;fontSize=12;whiteSpace=wrap;html=1;" vertex="1" parent="TzNKyjDSBVO5Mrejy5vB-2">
          <mxGeometry y="240" width="260" height="30" as="geometry" />
        </mxCell>
        <mxCell id="1ENWWORPzaJkovNIDj_e-4" value="modifiedAt&amp;nbsp; &amp;nbsp;date&amp;nbsp; &amp;nbsp;!null" style="text;strokeColor=none;fillColor=none;spacingLeft=4;spacingRight=4;overflow=hidden;rotatable=0;points=[[0,0.5],[1,0.5]];portConstraint=eastwest;fontSize=12;whiteSpace=wrap;html=1;" vertex="1" parent="TzNKyjDSBVO5Mrejy5vB-2">
          <mxGeometry y="270" width="260" height="30" as="geometry" />
        </mxCell>
        <mxCell id="TzNKyjDSBVO5Mrejy5vB-23" value="Photos" style="swimlane;fontStyle=1;childLayout=stackLayout;horizontal=1;startSize=26;horizontalStack=0;resizeParent=1;resizeParentMax=0;resizeLast=0;collapsible=1;marginBottom=0;align=center;fontSize=14;" parent="1" vertex="1">
          <mxGeometry x="370" y="190" width="195" height="180" as="geometry" />
        </mxCell>
        <mxCell id="TzNKyjDSBVO5Mrejy5vB-24" value="&lt;b&gt;p_id&lt;span style=&quot;white-space: pre;&quot;&gt;&#x9;&lt;/span&gt;&lt;/b&gt;PK&lt;span style=&quot;white-space: pre;&quot;&gt;&#x9;&lt;/span&gt;AI&lt;span style=&quot;white-space: pre;&quot;&gt;&#x9;&lt;/span&gt;!null&lt;span style=&quot;white-space: pre;&quot;&gt;&#x9;&lt;/span&gt;number" style="text;strokeColor=none;fillColor=none;spacingLeft=4;spacingRight=4;overflow=hidden;rotatable=0;points=[[0,0.5],[1,0.5]];portConstraint=eastwest;fontSize=12;whiteSpace=wrap;html=1;" parent="TzNKyjDSBVO5Mrejy5vB-23" vertex="1">
          <mxGeometry y="26" width="195" height="30" as="geometry" />
        </mxCell>
        <mxCell id="TzNKyjDSBVO5Mrejy5vB-25" value="&lt;b&gt;u_id&lt;span style=&quot;white-space: pre;&quot;&gt;&#x9;&lt;/span&gt;&lt;/b&gt;!null&lt;span style=&quot;white-space: pre;&quot;&gt;&#x9;&lt;/span&gt;string" style="text;strokeColor=none;fillColor=none;spacingLeft=4;spacingRight=4;overflow=hidden;rotatable=0;points=[[0,0.5],[1,0.5]];portConstraint=eastwest;fontSize=12;whiteSpace=wrap;html=1;" parent="TzNKyjDSBVO5Mrejy5vB-23" vertex="1">
          <mxGeometry y="56" width="195" height="30" as="geometry" />
        </mxCell>
        <mxCell id="TzNKyjDSBVO5Mrejy5vB-26" value="&lt;b&gt;p_name&lt;span style=&quot;white-space: pre;&quot;&gt;&#x9;&lt;/span&gt;&lt;/b&gt;string&lt;span style=&quot;white-space: pre;&quot;&gt;&#x9;&lt;/span&gt;!null" style="text;strokeColor=none;fillColor=none;spacingLeft=4;spacingRight=4;overflow=hidden;rotatable=0;points=[[0,0.5],[1,0.5]];portConstraint=eastwest;fontSize=12;whiteSpace=wrap;html=1;" parent="TzNKyjDSBVO5Mrejy5vB-23" vertex="1">
          <mxGeometry y="86" width="195" height="34" as="geometry" />
        </mxCell>
        <mxCell id="TzNKyjDSBVO5Mrejy5vB-27" value="&lt;b&gt;url&lt;span style=&quot;white-space: pre;&quot;&gt;&#x9;&lt;/span&gt;&lt;/b&gt;string&lt;span style=&quot;white-space: pre;&quot;&gt;&#x9;&lt;/span&gt;!null" style="text;strokeColor=none;fillColor=none;spacingLeft=4;spacingRight=4;overflow=hidden;rotatable=0;points=[[0,0.5],[1,0.5]];portConstraint=eastwest;fontSize=12;whiteSpace=wrap;html=1;" parent="TzNKyjDSBVO5Mrejy5vB-23" vertex="1">
          <mxGeometry y="120" width="195" height="30" as="geometry" />
        </mxCell>
        <mxCell id="1ENWWORPzaJkovNIDj_e-5" value="uploadedAt&amp;nbsp; &amp;nbsp;date&amp;nbsp; &amp;nbsp;!null" style="text;strokeColor=none;fillColor=none;spacingLeft=4;spacingRight=4;overflow=hidden;rotatable=0;points=[[0,0.5],[1,0.5]];portConstraint=eastwest;fontSize=12;whiteSpace=wrap;html=1;" vertex="1" parent="TzNKyjDSBVO5Mrejy5vB-23">
          <mxGeometry y="150" width="195" height="30" as="geometry" />
        </mxCell>
        <mxCell id="TzNKyjDSBVO5Mrejy5vB-29" value="" style="edgeStyle=entityRelationEdgeStyle;fontSize=12;html=1;endArrow=ERoneToMany;rounded=0;entryX=0;entryY=0.5;entryDx=0;entryDy=0;" parent="1" source="TzNKyjDSBVO5Mrejy5vB-3" target="TzNKyjDSBVO5Mrejy5vB-25" edge="1">
          <mxGeometry width="100" height="100" relative="1" as="geometry">
            <mxPoint x="280" y="240" as="sourcePoint" />
            <mxPoint x="380" y="140" as="targetPoint" />
          </mxGeometry>
        </mxCell>
        <mxCell id="TzNKyjDSBVO5Mrejy5vB-31" value="Reactions_user" style="swimlane;fontStyle=1;childLayout=stackLayout;horizontal=1;startSize=26;horizontalStack=0;resizeParent=1;resizeParentMax=0;resizeLast=0;collapsible=1;marginBottom=0;align=center;fontSize=14;" parent="1" vertex="1">
          <mxGeometry x="90" y="710" width="220" height="116" as="geometry" />
        </mxCell>
        <mxCell id="TzNKyjDSBVO5Mrejy5vB-32" value="ru_id !null number AI Unique PK" style="text;strokeColor=none;fillColor=none;spacingLeft=4;spacingRight=4;overflow=hidden;rotatable=0;points=[[0,0.5],[1,0.5]];portConstraint=eastwest;fontSize=12;whiteSpace=wrap;html=1;" parent="TzNKyjDSBVO5Mrejy5vB-31" vertex="1">
          <mxGeometry y="26" width="220" height="30" as="geometry" />
        </mxCell>
        <mxCell id="TzNKyjDSBVO5Mrejy5vB-33" value="user_id !null number" style="text;strokeColor=none;fillColor=none;spacingLeft=4;spacingRight=4;overflow=hidden;rotatable=0;points=[[0,0.5],[1,0.5]];portConstraint=eastwest;fontSize=12;whiteSpace=wrap;html=1;" parent="TzNKyjDSBVO5Mrejy5vB-31" vertex="1">
          <mxGeometry y="56" width="220" height="30" as="geometry" />
        </mxCell>
        <mxCell id="TzNKyjDSBVO5Mrejy5vB-34" value="p_id !null number" style="text;strokeColor=none;fillColor=none;spacingLeft=4;spacingRight=4;overflow=hidden;rotatable=0;points=[[0,0.5],[1,0.5]];portConstraint=eastwest;fontSize=12;whiteSpace=wrap;html=1;" parent="TzNKyjDSBVO5Mrejy5vB-31" vertex="1">
          <mxGeometry y="86" width="220" height="30" as="geometry" />
        </mxCell>
        <mxCell id="TzNKyjDSBVO5Mrejy5vB-37" value="Album_Photos" style="swimlane;fontStyle=1;childLayout=stackLayout;horizontal=1;startSize=26;horizontalStack=0;resizeParent=1;resizeParentMax=0;resizeLast=0;collapsible=1;marginBottom=0;align=center;fontSize=14;" parent="1" vertex="1">
          <mxGeometry x="730" y="340" width="230" height="176" as="geometry" />
        </mxCell>
        <mxCell id="TzNKyjDSBVO5Mrejy5vB-38" value="t_id PK AI Unique number !null" style="text;strokeColor=none;fillColor=none;spacingLeft=4;spacingRight=4;overflow=hidden;rotatable=0;points=[[0,0.5],[1,0.5]];portConstraint=eastwest;fontSize=12;whiteSpace=wrap;html=1;" parent="TzNKyjDSBVO5Mrejy5vB-37" vertex="1">
          <mxGeometry y="26" width="230" height="30" as="geometry" />
        </mxCell>
        <mxCell id="TzNKyjDSBVO5Mrejy5vB-39" value="user_id !null number" style="text;strokeColor=none;fillColor=none;spacingLeft=4;spacingRight=4;overflow=hidden;rotatable=0;points=[[0,0.5],[1,0.5]];portConstraint=eastwest;fontSize=12;whiteSpace=wrap;html=1;" parent="TzNKyjDSBVO5Mrejy5vB-37" vertex="1">
          <mxGeometry y="56" width="230" height="30" as="geometry" />
        </mxCell>
        <mxCell id="TzNKyjDSBVO5Mrejy5vB-40" value="album_id !null number" style="text;strokeColor=none;fillColor=none;spacingLeft=4;spacingRight=4;overflow=hidden;rotatable=0;points=[[0,0.5],[1,0.5]];portConstraint=eastwest;fontSize=12;whiteSpace=wrap;html=1;" parent="TzNKyjDSBVO5Mrejy5vB-37" vertex="1">
          <mxGeometry y="86" width="230" height="30" as="geometry" />
        </mxCell>
        <mxCell id="krsRfWwd7fLUTWGK-ZBf-13" value="p_id !null number" style="text;strokeColor=none;fillColor=none;spacingLeft=4;spacingRight=4;overflow=hidden;rotatable=0;points=[[0,0.5],[1,0.5]];portConstraint=eastwest;fontSize=12;whiteSpace=wrap;html=1;" parent="TzNKyjDSBVO5Mrejy5vB-37" vertex="1">
          <mxGeometry y="116" width="230" height="30" as="geometry" />
        </mxCell>
        <mxCell id="1ENWWORPzaJkovNIDj_e-6" value="savedAt&amp;nbsp; &amp;nbsp;date&amp;nbsp; &amp;nbsp;!null" style="text;strokeColor=none;fillColor=none;spacingLeft=4;spacingRight=4;overflow=hidden;rotatable=0;points=[[0,0.5],[1,0.5]];portConstraint=eastwest;fontSize=12;whiteSpace=wrap;html=1;" vertex="1" parent="TzNKyjDSBVO5Mrejy5vB-37">
          <mxGeometry y="146" width="230" height="30" as="geometry" />
        </mxCell>
        <mxCell id="TzNKyjDSBVO5Mrejy5vB-41" value="Album" style="swimlane;fontStyle=1;childLayout=stackLayout;horizontal=1;startSize=26;horizontalStack=0;resizeParent=1;resizeParentMax=0;resizeLast=0;collapsible=1;marginBottom=0;align=center;fontSize=14;" parent="1" vertex="1">
          <mxGeometry x="350" y="470" width="260" height="116" as="geometry" />
        </mxCell>
        <mxCell id="TzNKyjDSBVO5Mrejy5vB-42" value="album_id PK AI Unique number !null" style="text;strokeColor=none;fillColor=none;spacingLeft=4;spacingRight=4;overflow=hidden;rotatable=0;points=[[0,0.5],[1,0.5]];portConstraint=eastwest;fontSize=12;whiteSpace=wrap;html=1;" parent="TzNKyjDSBVO5Mrejy5vB-41" vertex="1">
          <mxGeometry y="26" width="260" height="30" as="geometry" />
        </mxCell>
        <mxCell id="TzNKyjDSBVO5Mrejy5vB-43" value="user_id !null number" style="text;strokeColor=none;fillColor=none;spacingLeft=4;spacingRight=4;overflow=hidden;rotatable=0;points=[[0,0.5],[1,0.5]];portConstraint=eastwest;fontSize=12;whiteSpace=wrap;html=1;" parent="TzNKyjDSBVO5Mrejy5vB-41" vertex="1">
          <mxGeometry y="56" width="260" height="30" as="geometry" />
        </mxCell>
        <mxCell id="TzNKyjDSBVO5Mrejy5vB-44" value="album_name string !null" style="text;strokeColor=none;fillColor=none;spacingLeft=4;spacingRight=4;overflow=hidden;rotatable=0;points=[[0,0.5],[1,0.5]];portConstraint=eastwest;fontSize=12;whiteSpace=wrap;html=1;" parent="TzNKyjDSBVO5Mrejy5vB-41" vertex="1">
          <mxGeometry y="86" width="260" height="30" as="geometry" />
        </mxCell>
        <mxCell id="krsRfWwd7fLUTWGK-ZBf-2" value="Tags" style="swimlane;fontStyle=0;childLayout=stackLayout;horizontal=1;startSize=26;horizontalStack=0;resizeParent=1;resizeParentMax=0;resizeLast=0;collapsible=1;marginBottom=0;align=center;fontSize=14;" parent="1" vertex="1">
          <mxGeometry x="890" y="50" width="280" height="86" as="geometry" />
        </mxCell>
        <mxCell id="krsRfWwd7fLUTWGK-ZBf-3" value="tag_id&lt;span style=&quot;white-space: pre;&quot;&gt;&#x9;&lt;/span&gt;PK&lt;span style=&quot;white-space: pre;&quot;&gt;&#x9;&lt;/span&gt;Unique&lt;span style=&quot;white-space: pre;&quot;&gt;&#x9;&lt;/span&gt;number&lt;span style=&quot;white-space: pre;&quot;&gt;&#x9;&lt;/span&gt;!null" style="text;strokeColor=none;fillColor=none;spacingLeft=4;spacingRight=4;overflow=hidden;rotatable=0;points=[[0,0.5],[1,0.5]];portConstraint=eastwest;fontSize=12;whiteSpace=wrap;html=1;" parent="krsRfWwd7fLUTWGK-ZBf-2" vertex="1">
          <mxGeometry y="26" width="280" height="30" as="geometry" />
        </mxCell>
        <mxCell id="krsRfWwd7fLUTWGK-ZBf-5" value="tag_name string !null" style="text;strokeColor=none;fillColor=none;spacingLeft=4;spacingRight=4;overflow=hidden;rotatable=0;points=[[0,0.5],[1,0.5]];portConstraint=eastwest;fontSize=12;whiteSpace=wrap;html=1;" parent="krsRfWwd7fLUTWGK-ZBf-2" vertex="1">
          <mxGeometry y="56" width="280" height="30" as="geometry" />
        </mxCell>
        <mxCell id="krsRfWwd7fLUTWGK-ZBf-6" value="Photo_Tags" style="swimlane;fontStyle=0;childLayout=stackLayout;horizontal=1;startSize=26;horizontalStack=0;resizeParent=1;resizeParentMax=0;resizeLast=0;collapsible=1;marginBottom=0;align=center;fontSize=14;" parent="1" vertex="1">
          <mxGeometry x="530" y="34" width="220" height="116" as="geometry" />
        </mxCell>
        <mxCell id="krsRfWwd7fLUTWGK-ZBf-7" value="t_id PK AI Unique number !null" style="text;strokeColor=none;fillColor=none;spacingLeft=4;spacingRight=4;overflow=hidden;rotatable=0;points=[[0,0.5],[1,0.5]];portConstraint=eastwest;fontSize=12;whiteSpace=wrap;html=1;" parent="krsRfWwd7fLUTWGK-ZBf-6" vertex="1">
          <mxGeometry y="26" width="220" height="30" as="geometry" />
        </mxCell>
        <mxCell id="krsRfWwd7fLUTWGK-ZBf-8" value="tag_id number !null" style="text;strokeColor=none;fillColor=none;spacingLeft=4;spacingRight=4;overflow=hidden;rotatable=0;points=[[0,0.5],[1,0.5]];portConstraint=eastwest;fontSize=12;whiteSpace=wrap;html=1;" parent="krsRfWwd7fLUTWGK-ZBf-6" vertex="1">
          <mxGeometry y="56" width="220" height="30" as="geometry" />
        </mxCell>
        <mxCell id="krsRfWwd7fLUTWGK-ZBf-10" value="" style="edgeStyle=entityRelationEdgeStyle;fontSize=12;html=1;endArrow=ERmany;startArrow=ERmany;rounded=0;entryX=0.005;entryY=0.706;entryDx=0;entryDy=0;entryPerimeter=0;exitX=1;exitY=0.5;exitDx=0;exitDy=0;" parent="krsRfWwd7fLUTWGK-ZBf-6" source="krsRfWwd7fLUTWGK-ZBf-8" target="krsRfWwd7fLUTWGK-ZBf-3" edge="1">
          <mxGeometry width="100" height="100" relative="1" as="geometry">
            <mxPoint x="-140" y="-10" as="sourcePoint" />
            <mxPoint x="-40" y="-110" as="targetPoint" />
          </mxGeometry>
        </mxCell>
        <mxCell id="krsRfWwd7fLUTWGK-ZBf-9" value="p_id number !null" style="text;strokeColor=none;fillColor=none;spacingLeft=4;spacingRight=4;overflow=hidden;rotatable=0;points=[[0,0.5],[1,0.5]];portConstraint=eastwest;fontSize=12;whiteSpace=wrap;html=1;" parent="krsRfWwd7fLUTWGK-ZBf-6" vertex="1">
          <mxGeometry y="86" width="220" height="30" as="geometry" />
        </mxCell>
        <mxCell id="krsRfWwd7fLUTWGK-ZBf-14" value="" style="edgeStyle=entityRelationEdgeStyle;fontSize=12;html=1;endArrow=ERoneToMany;rounded=0;exitX=1;exitY=0.5;exitDx=0;exitDy=0;entryX=0;entryY=0.5;entryDx=0;entryDy=0;" parent="1" source="TzNKyjDSBVO5Mrejy5vB-3" target="TzNKyjDSBVO5Mrejy5vB-43" edge="1">
          <mxGeometry width="100" height="100" relative="1" as="geometry">
            <mxPoint x="270" y="470" as="sourcePoint" />
            <mxPoint x="370" y="370" as="targetPoint" />
          </mxGeometry>
        </mxCell>
        <mxCell id="krsRfWwd7fLUTWGK-ZBf-15" value="" style="edgeStyle=entityRelationEdgeStyle;fontSize=12;html=1;endArrow=ERmany;startArrow=ERmany;rounded=0;entryX=0;entryY=0.5;entryDx=0;entryDy=0;" parent="1" source="TzNKyjDSBVO5Mrejy5vB-42" target="TzNKyjDSBVO5Mrejy5vB-40" edge="1">
          <mxGeometry width="100" height="100" relative="1" as="geometry">
            <mxPoint x="330" y="400" as="sourcePoint" />
            <mxPoint x="430" y="300" as="targetPoint" />
          </mxGeometry>
        </mxCell>
        <mxCell id="krsRfWwd7fLUTWGK-ZBf-16" value="" style="edgeStyle=entityRelationEdgeStyle;fontSize=12;html=1;endArrow=ERmany;startArrow=ERmany;rounded=0;entryX=1;entryY=0.5;entryDx=0;entryDy=0;exitX=0;exitY=0.5;exitDx=0;exitDy=0;" parent="1" source="krsRfWwd7fLUTWGK-ZBf-13" target="TzNKyjDSBVO5Mrejy5vB-24" edge="1">
          <mxGeometry width="100" height="100" relative="1" as="geometry">
            <mxPoint x="330" y="400" as="sourcePoint" />
            <mxPoint x="430" y="300" as="targetPoint" />
          </mxGeometry>
        </mxCell>
        <mxCell id="krsRfWwd7fLUTWGK-ZBf-18" value="" style="edgeStyle=entityRelationEdgeStyle;fontSize=12;html=1;endArrow=ERmany;startArrow=ERmany;rounded=0;exitX=1;exitY=0.5;exitDx=0;exitDy=0;" parent="1" source="TzNKyjDSBVO5Mrejy5vB-24" target="krsRfWwd7fLUTWGK-ZBf-9" edge="1">
          <mxGeometry width="100" height="100" relative="1" as="geometry">
            <mxPoint x="330" y="400" as="sourcePoint" />
            <mxPoint x="430" y="300" as="targetPoint" />
          </mxGeometry>
        </mxCell>
        <mxCell id="krsRfWwd7fLUTWGK-ZBf-19" value="" style="edgeStyle=entityRelationEdgeStyle;fontSize=12;html=1;endArrow=ERoneToMany;rounded=0;entryX=0;entryY=0.5;entryDx=0;entryDy=0;" parent="1" source="TzNKyjDSBVO5Mrejy5vB-34" target="TzNKyjDSBVO5Mrejy5vB-24" edge="1">
          <mxGeometry width="100" height="100" relative="1" as="geometry">
            <mxPoint x="270" y="470" as="sourcePoint" />
            <mxPoint x="370" y="370" as="targetPoint" />
          </mxGeometry>
        </mxCell>
        <mxCell id="krsRfWwd7fLUTWGK-ZBf-20" value="" style="edgeStyle=entityRelationEdgeStyle;fontSize=12;html=1;endArrow=ERoneToMany;rounded=0;" parent="1" source="TzNKyjDSBVO5Mrejy5vB-3" target="TzNKyjDSBVO5Mrejy5vB-33" edge="1">
          <mxGeometry width="100" height="100" relative="1" as="geometry">
            <mxPoint x="-40" y="503" as="sourcePoint" />
            <mxPoint x="60" y="403" as="targetPoint" />
          </mxGeometry>
        </mxCell>
      </root>
    </mxGraphModel>
  </diagram>
</mxfile>
